<svg viewBox="0 0 200 200" xmlns="http://www.w3.org/2000/svg">
  <defs>
    <clipPath id="circle-clip"><circle cx="100" cy="100" r="100"/></clipPath>
  </defs>
  <rect width="200" height="200" fill="#FEF0F4"/>
  <circle cx="100" cy="100" r="98" fill="none" stroke="#F54E7A" stroke-width="2" stroke-dasharray="4 4" opacity="0.4"/>
  <g clip-path="url(#circle-clip)">

    <!-- Casita de fondo -->
    <g transform="translate(140 30)" opacity="0.25">
      <rect x="0" y="20" width="40" height="30" fill="#F54E7A"/>
      <path d="M-5,20 L20,0 L45,20Z" fill="#F54E7A"/>
      <rect x="14" y="32" width="12" height="18" fill="#FEF0F4"/>
    </g>
    <rect x="20" y="160" width="30" height="30" fill="#FBA4BC" opacity="0.3" rx="4"/>
    <!-- Cabeza -->
    <ellipse cx="100" cy="78" rx="32" ry="36" fill="#C99371"/>
    <!-- Pelo (recogido) -->
    <path d="M68,72 Q70,42 100,40 Q130,42 132,72 Q130,60 120,55 L120,48 Q115,44 100,44 Q85,44 80,48 L80,55 Q70,60 68,72Z" fill="#5B3F32"/>
    <circle cx="138" cy="60" r="8" fill="#5B3F32"/>
    <!-- Ojos -->
    <circle cx="89" cy="78" r="2.5" fill="#140B10"/>
    <circle cx="111" cy="78" r="2.5" fill="#140B10"/>
    <!-- Aretes -->
    <circle cx="68" cy="92" r="2" fill="#F54E7A"/>
    <circle cx="132" cy="92" r="2" fill="#F54E7A"/>
    <!-- Sonrisa -->
    <path d="M92,92 Q100,99 108,92" fill="none" stroke="#140B10" stroke-width="2" stroke-linecap="round"/>
    <!-- Cuello -->
    <rect x="92" y="110" width="16" height="18" fill="#C99371"/>
    <!-- Blusa -->
    <path d="M55,200 L55,158 Q55,138 78,132 L100,148 L122,132 Q145,138 145,158 L145,200Z" fill="#F54E7A"/>
    <!-- Cuello blusa V -->
    <path d="M82,132 L100,160 L118,132 L100,144Z" fill="#FEF0F4"/>
    <!-- Collar -->
    <circle cx="100" cy="135" r="2.5" fill="#FFFFFF"/>

  </g>
</svg>