<svg viewBox="0 0 200 200" xmlns="http://www.w3.org/2000/svg">
  <defs>
    <clipPath id="circle-clip"><circle cx="100" cy="100" r="100"/></clipPath>
  </defs>
  <rect width="200" height="200" fill="#FEF0F4"/>
  <circle cx="100" cy="100" r="98" fill="none" stroke="#F54E7A" stroke-width="2" stroke-dasharray="4 4" opacity="0.4"/>
  <g clip-path="url(#circle-clip)">

    <!-- Code brackets decorativos -->
    <g transform="translate(155 45)" opacity="0.4">
      <text x="0" y="20" font-family="monospace" font-size="28" font-weight="bold" fill="#F54E7A">&lt;/&gt;</text>
    </g>
    <circle cx="35" cy="165" r="20" fill="#FBA4BC" opacity="0.3"/>
    <!-- Cabeza -->
    <ellipse cx="100" cy="78" rx="32" ry="36" fill="#E8B894"/>
    <!-- Pelo despeinado/casual -->
    <path d="M67,72 Q68,42 100,38 Q132,42 133,72 Q133,55 124,52 Q120,46 110,44 Q98,42 90,46 Q82,46 76,52 Q67,55 67,72Z" fill="#2A1F26"/>
    <path d="M75,50 L80,42 M88,42 L92,38 M108,38 L112,42" stroke="#2A1F26" stroke-width="2" stroke-linecap="round"/>
    <!-- Audífonos sobre orejas (estilo developer) -->
    <path d="M68,75 Q68,52 100,52 Q132,52 132,75" fill="none" stroke="#182247" stroke-width="3" stroke-linecap="round"/>
    <ellipse cx="68" cy="80" rx="6" ry="9" fill="#182247"/>
    <ellipse cx="132" cy="80" rx="6" ry="9" fill="#182247"/>
    <circle cx="68" cy="80" r="3" fill="#F54E7A"/>
    <circle cx="132" cy="80" r="3" fill="#F54E7A"/>
    <!-- Ojos -->
    <circle cx="89" cy="78" r="2.5" fill="#140B10"/>
    <circle cx="111" cy="78" r="2.5" fill="#140B10"/>
    <!-- Sonrisa -->
    <path d="M92,92 Q100,98 108,92" fill="none" stroke="#140B10" stroke-width="2" stroke-linecap="round"/>
    <!-- Cuello -->
    <rect x="92" y="110" width="16" height="18" fill="#E8B894"/>
    <!-- Hoodie -->
    <path d="M55,200 L55,158 Q55,138 75,135 L92,128 L100,150 L108,128 L125,135 Q145,138 145,158 L145,200Z" fill="#182247"/>
    <!-- Capucha -->
    <path d="M75,135 Q75,120 92,128 L100,135 L108,128 Q125,120 125,135" fill="#0E1530"/>
    <!-- Cordón hoodie -->
    <line x1="96" y1="140" x2="94" y2="160" stroke="#FAF7F5" stroke-width="1.5"/>
    <line x1="104" y1="140" x2="106" y2="160" stroke="#FAF7F5" stroke-width="1.5"/>

  </g>
</svg>