<svg viewBox="0 0 200 200" xmlns="http://www.w3.org/2000/svg">
  <defs>
    <clipPath id="circle-clip"><circle cx="100" cy="100" r="100"/></clipPath>
  </defs>
  <rect width="200" height="200" fill="#FEF0F4"/>
  <circle cx="100" cy="100" r="98" fill="none" stroke="#F54E7A" stroke-width="2" stroke-dasharray="4 4" opacity="0.4"/>
  <g clip-path="url(#circle-clip)">

    <!-- Fondo decorativo -->
    <circle cx="160" cy="50" r="35" fill="#FBA4BC" opacity="0.3"/>
    <rect x="20" y="150" width="40" height="40" fill="#F54E7A" opacity="0.15" rx="8"/>
    <!-- Cabeza -->
    <ellipse cx="100" cy="78" rx="32" ry="36" fill="#E8B894"/>
    <!-- Pelo -->
    <path d="M68,70 Q70,40 100,38 Q130,40 132,70 Q132,55 125,50 Q115,46 100,46 Q85,46 75,50 Q68,55 68,70Z" fill="#2A1F26"/>
    <!-- Ojos -->
    <circle cx="89" cy="78" r="2.5" fill="#140B10"/>
    <circle cx="111" cy="78" r="2.5" fill="#140B10"/>
    <!-- Sonrisa -->
    <path d="M92,92 Q100,98 108,92" fill="none" stroke="#140B10" stroke-width="2" stroke-linecap="round"/>
    <!-- Cuello -->
    <rect x="92" y="110" width="16" height="18" fill="#E8B894"/>
    <!-- Saco -->
    <path d="M55,200 L55,160 Q55,140 75,135 L92,128 L100,150 L108,128 L125,135 Q145,140 145,160 L145,200Z" fill="#182247"/>
    <!-- Solapa -->
    <path d="M92,128 L100,150 L108,128 L100,158Z" fill="#0E1530"/>
    <!-- Camisa -->
    <path d="M93,128 L100,148 L107,128 L100,200 L93,200Z" fill="#FFFFFF" opacity="0.95"/>
    <!-- Corbata rosa -->
    <path d="M96,135 L104,135 L102,160 L100,165 L98,160Z" fill="#F54E7A"/>

  </g>
</svg>