<svg viewBox="0 0 200 200" xmlns="http://www.w3.org/2000/svg">
  <defs>
    <clipPath id="circle-clip"><circle cx="100" cy="100" r="100"/></clipPath>
  </defs>
  <rect width="200" height="200" fill="#FEF0F4"/>
  <circle cx="100" cy="100" r="98" fill="none" stroke="#F54E7A" stroke-width="2" stroke-dasharray="4 4" opacity="0.4"/>
  <g clip-path="url(#circle-clip)">

    <!-- Flor decorativa -->
    <g transform="translate(155 40)" opacity="0.4">
      <circle cx="0" cy="0" r="4" fill="#F54E7A"/>
      <circle cx="-8" cy="0" r="5" fill="#FBA4BC"/>
      <circle cx="8" cy="0" r="5" fill="#FBA4BC"/>
      <circle cx="0" cy="-8" r="5" fill="#FBA4BC"/>
      <circle cx="0" cy="8" r="5" fill="#FBA4BC"/>
    </g>
    <circle cx="35" cy="165" r="18" fill="#F54E7A" opacity="0.2"/>
    <!-- Cabeza -->
    <ellipse cx="100" cy="78" rx="32" ry="36" fill="#E8B894"/>
    <!-- Pelo recogido bun -->
    <path d="M68,72 Q70,42 100,40 Q130,42 132,72 Q130,55 120,50 Q115,46 100,46 Q85,46 80,50 Q70,55 68,72Z" fill="#3E2A33"/>
    <circle cx="100" cy="35" r="10" fill="#3E2A33"/>
    <!-- Diadema -->
    <path d="M75,52 Q100,40 125,52" fill="none" stroke="#F54E7A" stroke-width="2.5"/>
    <!-- Ojos con pestañas -->
    <circle cx="89" cy="78" r="2.5" fill="#140B10"/>
    <circle cx="111" cy="78" r="2.5" fill="#140B10"/>
    <path d="M85,75 L88,73 M91,73 L93,72 M107,72 L109,73 M112,73 L115,75" stroke="#140B10" stroke-width="0.8"/>
    <!-- Lipstick rosa -->
    <path d="M92,93 Q100,99 108,93" fill="#F54E7A" stroke="#DB3E68" stroke-width="0.8"/>
    <!-- Cuello -->
    <rect x="92" y="110" width="16" height="18" fill="#E8B894"/>
    <!-- Bata blanca -->
    <path d="M55,200 L55,160 Q55,140 75,135 L92,128 L100,150 L108,128 L125,135 Q145,140 145,160 L145,200Z" fill="#FFFFFF"/>
    <path d="M92,128 L100,148 L108,128 L100,200 L93,200Z" fill="#FAF7F5"/>
    <!-- Cuello bata -->
    <path d="M86,128 L100,150 L114,128 L100,138Z" fill="#FEF0F4"/>
    <!-- Pin de flor -->
    <circle cx="80" cy="155" r="3" fill="#F54E7A"/>
    <circle cx="80" cy="155" r="1" fill="#FFFFFF"/>

  </g>
</svg>