<svg viewBox="0 0 200 200" xmlns="http://www.w3.org/2000/svg">
  <defs>
    <clipPath id="circle-clip"><circle cx="100" cy="100" r="100"/></clipPath>
  </defs>
  <rect width="200" height="200" fill="#FEF0F4"/>
  <circle cx="100" cy="100" r="98" fill="none" stroke="#F54E7A" stroke-width="2" stroke-dasharray="4 4" opacity="0.4"/>
  <g clip-path="url(#circle-clip)">

    <!-- Documentos decorativos -->
    <g transform="translate(150 35) rotate(8)">
      <rect x="0" y="0" width="28" height="36" fill="#FFFFFF" stroke="#F54E7A" stroke-width="1.5" opacity="0.6"/>
      <line x1="4" y1="8" x2="24" y2="8" stroke="#FBA4BC" stroke-width="1"/>
      <line x1="4" y1="14" x2="24" y2="14" stroke="#FBA4BC" stroke-width="1"/>
      <line x1="4" y1="20" x2="20" y2="20" stroke="#FBA4BC" stroke-width="1"/>
    </g>
    <rect x="22" y="160" width="28" height="28" fill="#FBA4BC" opacity="0.3" rx="4"/>
    <!-- Cabeza -->
    <ellipse cx="100" cy="78" rx="32" ry="36" fill="#E8B894"/>
    <!-- Pelo entrecano -->
    <path d="M68,70 Q70,40 100,38 Q130,40 132,70 Q132,55 122,50 Q110,46 100,46 Q90,46 78,50 Q68,55 68,70Z" fill="#3E2A33"/>
    <path d="M75,55 Q80,52 85,54" fill="none" stroke="#A99098" stroke-width="1"/>
    <path d="M115,54 Q120,52 125,55" fill="none" stroke="#A99098" stroke-width="1"/>
    <!-- Lentes elegantes -->
    <rect x="80" y="74" width="16" height="10" rx="2" fill="none" stroke="#140B10" stroke-width="1.5"/>
    <rect x="104" y="74" width="16" height="10" rx="2" fill="none" stroke="#140B10" stroke-width="1.5"/>
    <line x1="96" y1="79" x2="104" y2="79" stroke="#140B10" stroke-width="1.5"/>
    <!-- Ojos -->
    <circle cx="88" cy="79" r="1.8" fill="#140B10"/>
    <circle cx="112" cy="79" r="1.8" fill="#140B10"/>
    <!-- Sonrisa seria -->
    <path d="M92,93 Q100,97 108,93" fill="none" stroke="#140B10" stroke-width="2" stroke-linecap="round"/>
    <!-- Cuello -->
    <rect x="92" y="110" width="16" height="18" fill="#E8B894"/>
    <!-- Saco oscuro -->
    <path d="M55,200 L55,160 Q55,140 75,135 L92,128 L100,150 L108,128 L125,135 Q145,140 145,160 L145,200Z" fill="#0E1530"/>
    <!-- Solapa -->
    <path d="M92,128 L100,150 L108,128 L100,158Z" fill="#000814"/>
    <!-- Camisa -->
    <path d="M93,128 L100,148 L107,128 L100,200 L93,200Z" fill="#FFFFFF" opacity="0.95"/>
    <!-- Corbata navy -->
    <path d="M96,135 L104,135 L102,165 L100,170 L98,165Z" fill="#182247"/>
    <!-- Pin solapa -->
    <circle cx="80" cy="155" r="2" fill="#F54E7A"/>

  </g>
</svg>